<svg version="1.0" xmlns="http://www.w3.org/2000/svg" width="384" height="384" viewBox="0 0 288 288"><path d="M102.7 25c-1.6.5-3.5 1.4-4.2 2-2.1 1.8-3 7.7-1.4 9.6.7.9 1.8 2.6 2.4 3.8.6 1.1 2.3 2.7 3.9 3.5 2.4 1.1 3 1.1 4.2-.1.8-.8 1.6-2.7 1.7-4.3.1-1.6 1.2-3.9 2.5-5.3 2.8-3.2 2.8-4.7-.3-7.7-2.5-2.6-4.2-2.9-8.8-1.5zM169 25.9c-2.2.6-2.5 1.3-2.8 5.8-.3 4.5 0 5.3 2.3 7.1 2.9 2.3 5.5 1.9 5.5-.8 0-1 .6-2 1.4-2.3 2.2-.9 2.9-5.6 1.1-8.3-1.6-2.4-3.1-2.7-7.5-1.5z"/><path d="M128.1 38.3c-.5 1.3-2 3.1-3.3 3.9-1.3.9-3.2 3.4-4.3 5.7-1 2.3-2.4 4.1-3.2 4.1-2.7 0-7.3 3.1-7.8 5.3-.5 1.9-1.1 2.2-4 1.9-2.7-.3-3.6.1-5.1 2.3-1.4 2.2-1.6 3.2-.7 5.6.9 2.2.8 2.9-.1 2.9-2.3 0-4.8 3.7-4.1 5.9.3 1.2 1.1 2.1 1.6 2.1s.9.7.9 1.6c0 1-.6 1.3-1.7 1-3.1-1-15.6-2.5-16.4-2-.4.2-2.2 3.3-4 6.8-2.8 5.5-3.1 6.8-2.2 8.9 1.6 3.5 5 4.1 7.7 1.2 1.3-1.4 2.7-2.1 3.4-1.6 1.6 1 2.4 4.9 1.1 5.7-2.1 1.3-6.8 1.2-7.9-.2-2.1-2.4-9.7-1.8-12.5 1.1-1.4 1.3-2.5 2.8-2.5 3.3 0 .4 1.5 2.8 3.3 5.1 3 4 3.4 4.2 7.1 3.6 3.3-.5 3.7-.3 3.2 1.1-1.2 3.1 1.5 9.3 5.1 11.4 2.4 1.4 3.3 2.6 3.3 4.6 0 1.8.6 2.8 2.1 3.1 1.6.5 1.9 1.1 1.4 3.1-.3 1.4-.1 3.7.4 5.1.6 1.4 2.4 14.1 4.1 28.1 1.7 14 3.4 26.5 3.7 27.7.5 2 .1 2.3-2.8 2.3-1.9 0-5.8-.3-8.7-.7-5-.6-5.2-.7-3.5-2.3 1-1 2.1-1.6 2.6-1.3.4.2.7-.1.7-.7s.4-.9.9-.6c.5.3 1.5-.2 2.2-1.1.8-.9.9-1.4.3-1-.8.4-1.3-3.5-1.8-13-.4-7.4-1.1-14.3-1.6-15.3-.6-1.1-.5-2.1.2-2.8 2.5-2.5-.9-3.5-11.7-3.6-10-.1-10.5-.2-10.5-2.2 0-3.6-2.7-3.6-6.4 0-2.6 2.4-4.4 3.3-7.3 3.4-2.1.1-9 1.1-15.3 2.2-18.1 3.3-19 3.4-19 2.1 0-1.8-2.6-4.1-4.7-4.1-1 0-3.7.9-6 2-4.1 1.8-4.3 2.1-4.3 6.2 0 7.3 5.4 30.6 7.5 32 1.8 1.3 6.2.9 17.1-1.7 5.8-1.4 11-2.5 11.5-2.5 1.2 0 2.5 5.5 4.5 18.7.9 6.2 2 11.3 2.4 11.3.4 0 .6 1.1.5 2.5-.2 1.4.1 2.5.6 2.5.6 0 .7.5.4 1-.8 1.2 5.1 7 7.1 7 .8 0 1.4.5 1.4 1.2 0 .6.3.9.6.5.4-.3 2.4.3 4.5 1.3 2.1 1.1 4.3 2 4.8 2s2.2.5 3.8 1.2c1.5.6 3.9 1.3 5.3 1.5 1.4.2 3.2.6 4 1 1.7.7 3.3 1.1 7.5 1.8 1.7.3 4.1.8 5.5 1 1.4.3 5 .7 8 1 3 .3 5.6.8 5.8 1 .2.1.7 3.7 1.1 7.9.7 7.4.6 7.6-1.6 7.6-2.3 0-4.3 2.6-4.3 5.5 0 .9-1.4 2.8-3.1 4.2-2.6 2.2-3 3.1-2.5 5.7.8 4 2 4.6 9.3 4.6 5.8 0 6.3-.2 8.7-3.2 2.3-3 2.6-3.1 2.6-1.1 0 3.1 1.4 3.6 8.4 2.9 4.9-.6 6.4-1.1 7.1-2.8 1-2 1.8-2.1 19.5-2.2l18.5-.2 2.8 2.9c1.7 1.8 3.4 2.7 4.3 2.3.9-.3 3.6-.6 6.1-.6 3.6 0 4.6-.4 5-1.9.5-1.9.5-1.9 2.4 0 1.6 1.6 3.1 1.9 7.1 1.7 8.8-.5 8.7-5.4-.2-9.6-2.6-1.3-3.5-2.3-3.5-4.2 0-2-.6-2.6-2.6-2.8-1.5-.2-3.4.4-4.4 1.4-1.7 1.7-1.7 1.4-1.1-5.7 1.1-12.1 1.4-12.9 4.4-13 1.5 0 3.6-.2 4.7-.4 2.2-.3 11.2-1.6 12-1.7.2 0 3.7-.9 7.7-1.9 4-1.1 8-2.2 8.8-2.4.8-.2 1.7-.4 2-.5.3-.1.8-.2 1.3-.1.4 0 .7-.4.7-1 0-.5.4-.8.8-.5 1.3.8 13.7-6 13.4-7.3-.1-.7.2-1 .7-.7 1.4.9 4-3.8 3.7-6.8-.2-1.4 0-2.6.4-2.6s1.7-6.5 3-14.5l2.4-14.5h3.1c1.7 0 7.3.9 12.5 2 12.8 2.8 14.8 2.5 16.5-2.4.8-2.2 1.7-5.7 2-7.8.4-2.1 1.1-4 1.6-4.4.5-.3.9-2.3.9-4.4 0-2.1.4-4.1.8-4.4 1-.6.9-4.2-.1-5.2-.3-.4 0-1.9.9-3.5 1.3-2.7 1.2-3.3-.8-3-.5 0-.8-.3-.8-.7 0-.8-3-1.9-9.7-3.7-1.3-.4-2.3-1.1-2.3-1.6s-.4-.9-.8-.9c-.5 0-.7 1.2-.5 2.7.7 5.6-.1 5.8-15.8 2.9-18.2-3.3-26.4-4.1-41.6-4.1-12.9 0-15.9.9-13.3 4 .7.8.8 1.5.3 1.5-.9 0-1.4 4.1-2.9 21.5-.1 1.6.1 4.5.6 6.3.8 3.1.7 3.2-.8 2-1.5-1.1-1.6-1.1-.4.4.7.9 2.9 2.4 4.8 3.3 2 .9 3.4 1.8 3.2 2-.2.2-3.8.6-8 1l-7.8.7.5-2.8c.3-1.6 1.6-12.4 3-23.9 2.2-18.5 3.5-28.7 4-32 .1-.6.3-2.4.3-4.1.2-2.3.8-3.3 2.2-3.7 2.2-.6 2.8-4.1.9-5.3-.8-.5-.6-1 .5-1.6 2.3-1.3 2-3.1-1-5.8-1.8-1.8-2.3-3.1-1.9-4.8.3-1.3.1-3-.6-3.8-1.3-1.6.2-3.9 4.9-7.8 1.9-1.5 2.3-2.6 2-5.8-.3-3.6-.2-3.9 1.9-3.3 3 .7 8.1-1.9 9.4-4.9 1.2-2.6-.3-6.9-4.4-11.9l-2.3-2.9-8.4 1c-4.6.6-8.8.8-9.2.6-.4-.2 0-2 .8-3.9 2.3-5.5-.3-9-7.7-10.4l-4.4-.9 3.4-.7c2.1-.5 3.6-1.5 3.9-2.7.2-1.1 1.5-2.3 2.7-2.8 1.9-.7 2.4-1.8 2.7-6.2.6-7.3-1-9.8-6.2-9.8-2.7 0-4.7.7-6 2-2.4 2.4-2.5 3.9-.6 6.5 1.5 2.1 1.2 3.7-1.6 7.6-1.9 2.5-1.6 5.9.5 5.9 1.3 0-3.5 4.5-5.8 5.4-1.4.5-1.6.3-.9-1.1 1.5-3.1 1-11.3-.6-12.3-2.8-1.8-6.8-1.1-8.8 1.5-2.4 3-3.2 3.1-3.2.5 0-1.1-.5-2-1-2-.6 0-1.5-1.1-2-2.5-1.3-3.5-4.9-3.2-10.2.8-2.4 1.9-5.9 3.7-7.7 4-1.8.4-4.5 1.6-6.1 2.7-2.5 1.7-2.9 1.8-3.4.4-.9-2.3-.8-2.4 1.8-2.4 3.2 0 4.1-1.4 5.5-8.8 1.1-5.5 1-6.7-.4-8.8-2.1-3.3-7.2-3.4-8.4-.1zM114.5 78c-.3.5-1.2.7-2 .3-2.1-.7-1.9-1.3.6-1.3 1.1 0 1.8.4 1.4 1zM77.3 52.2c-2.4 3.1-2.2 4.7 1.3 7.7 5 4.4 10.8 4 8.6-.6-.5-1-1.5-3.2-2.3-4.8-1.6-3.3-5.8-4.6-7.6-2.3zM235.2 63.2c-1.6 1.6-1.5 2.9.7 5.8 1.6 2 2.6 2.4 6.3 2.1 4.9-.3 6.8-1.5 6.8-4.2 0-1.7-1-2.3-3.2-2.1-.3.1-1.2-.5-1.8-1.3-1.5-1.8-7.1-2-8.8-.3zM23.8 82.6c-.3.3-2.8.8-5.5 1.2-4.3.6-4.8 1-5.1 3.6-.6 5.1 5 9 10.3 7 2.2-.9 4.6-7.1 3.9-10-.6-2.2-2.3-3.1-3.6-1.8z"/><path d="M226.1 110.1c-1.5 1.7-2.6 2-4.8 1.4-5.5-1.3-8.7-1.1-9.1.7-.4 2.3 4.6 8.8 6.3 8.2.7-.3 2 .4 2.8 1.6 1.3 1.8 2.1 2.1 4.9 1.4 1.8-.4 4.3-.8 5.6-1 4.1-.4 5.5-2.4 4.7-6.8-1.1-7.2-6.3-9.9-10.4-5.5zM39.2 121.8c-4.6 4-5.3 5.1-5 7.7.3 3 .3 3 6.3 2.7 10.3-.4 16.2-4.5 14.1-9.7-.6-1.8-6.5-5.5-8.6-5.5-.8 0-3.9 2.2-6.8 4.8zM248.4 125.9c-4.6 2.1-5.5 4.1-5 10.8.4 5.2 2 7.3 5.7 7.3 2 0 3-.6 3.4-2.3.4-1.2 1.5-3.1 2.5-4.2 2.8-3.1 3.5-8.1 1.6-11-2-3-2.8-3-8.2-.6zM270.5 205.7c-3.4.9-4 2-3.7 7.3.3 3.9.9 5.4 2.7 6.6 2.3 1.5 5.5 1 5.5-.9 0-.6.6-1.8 1.4-2.6 2.6-2.9 2.9-6.4.6-8.9-2.1-2.2-2.8-2.4-6.5-1.5zM17.9 214.6c-1 1.2-1 2-.1 3.5.7 1 1.2 2.5 1.2 3.2 0 2.4 4.8 6.7 7.5 6.7 1.8 0 3.1-.9 4.5-3.3 1.1-1.7 2-3.7 2-4.3 0-1.6-9.2-7.4-11.7-7.4-1.1 0-2.6.7-3.4 1.6z"/></svg>