<?xml version="1.0" standalone="no"?>
<!DOCTYPE svg PUBLIC "-//W3C//DTD SVG 20010904//EN"
 "http://www.w3.org/TR/2001/REC-SVG-20010904/DTD/svg10.dtd">
<svg version="1.0" xmlns="http://www.w3.org/2000/svg"
 width="288.000000pt" height="288.000000pt" viewBox="0 0 288.000000 288.000000"
 preserveAspectRatio="xMidYMid meet">
<metadata>
Created by potrace 1.14, written by Peter Selinger 2001-2017
</metadata>
<g transform="translate(0.000000,288.000000) scale(0.100000,-0.100000)"
fill="#000000" stroke="none">
<path d="M1027 2630 c-16 -5 -35 -14 -42 -20 -21 -18 -30 -77 -14 -96 7 -9 18
-26 24 -38 6 -11 23 -27 39 -35 24 -11 30 -11 42 1 8 8 16 27 17 43 1 16 12
39 25 53 28 32 28 47 -3 77 -25 26 -42 29 -88 15z"/>
<path d="M1690 2621 c-22 -6 -25 -13 -28 -58 -3 -45 0 -53 23 -71 29 -23 55
-19 55 8 0 10 6 20 14 23 22 9 29 56 11 83 -16 24 -31 27 -75 15z"/>
<path d="M1281 2497 c-5 -13 -20 -31 -33 -39 -13 -9 -32 -34 -43 -57 -10 -23
-24 -41 -32 -41 -27 0 -73 -31 -78 -53 -5 -19 -11 -22 -40 -19 -27 3 -36 -1
-51 -23 -14 -22 -16 -32 -7 -56 9 -22 8 -29 -1 -29 -23 0 -48 -37 -41 -59 3
-12 11 -21 16 -21 5 0 9 -7 9 -16 0 -10 -6 -13 -17 -10 -31 10 -156 25 -164
20 -4 -2 -22 -33 -40 -68 -28 -55 -31 -68 -22 -89 16 -35 50 -41 77 -12 13 14
27 21 34 16 16 -10 24 -49 11 -57 -21 -13 -68 -12 -79 2 -21 24 -97 18 -125
-11 -14 -13 -25 -28 -25 -33 0 -4 15 -28 33 -51 30 -40 34 -42 71 -36 33 5 37
3 32 -11 -12 -31 15 -93 51 -114 24 -14 33 -26 33 -46 0 -18 6 -28 21 -31 16
-5 19 -11 14 -31 -3 -14 -1 -37 4 -51 6 -14 24 -141 41 -281 17 -140 34 -265
37 -277 5 -20 1 -23 -28 -23 -19 0 -58 3 -87 7 -50 6 -52 7 -35 23 10 10 21
16 26 13 4 -2 7 1 7 7 0 6 4 9 9 6 5 -3 15 2 22 11 8 9 9 14 3 10 -8 -4 -13
35 -18 130 -4 74 -11 143 -16 153 -6 11 -5 21 2 28 25 25 -9 35 -117 36 -100
1 -105 2 -105 22 0 36 -27 36 -64 0 -26 -24 -44 -33 -73 -34 -21 -1 -90 -11
-153 -22 -181 -33 -190 -34 -190 -21 0 18 -26 41 -47 41 -10 0 -37 -9 -60 -20
-41 -18 -43 -21 -43 -62 0 -73 54 -306 75 -320 18 -13 62 -9 171 17 58 14 110
25 115 25 12 0 25 -55 45 -187 9 -62 20 -113 24 -113 4 0 6 -11 5 -25 -2 -14
1 -25 6 -25 6 0 7 -5 4 -10 -8 -12 51 -70 71 -70 8 0 14 -5 14 -12 0 -6 3 -9
6 -5 4 3 24 -3 45 -13 21 -11 43 -20 48 -20 5 0 22 -5 38 -12 15 -6 39 -13 53
-15 14 -2 32 -6 40 -10 17 -7 33 -11 75 -18 17 -3 41 -8 55 -10 14 -3 50 -7
80 -10 30 -3 56 -8 58 -10 2 -1 7 -37 11 -79 7 -74 6 -76 -16 -76 -23 0 -43
-26 -43 -55 0 -9 -14 -28 -31 -42 -26 -22 -30 -31 -25 -57 8 -40 20 -46 93
-46 58 0 63 2 87 32 23 30 26 31 26 11 0 -31 14 -36 84 -29 49 6 64 11 71 28
10 20 18 21 195 22 l185 2 28 -29 c17 -18 34 -27 43 -23 9 3 36 6 61 6 36 0
46 4 50 19 5 19 5 19 24 0 16 -16 31 -19 71 -17 88 5 87 54 -2 96 -26 13 -35
23 -35 42 0 20 -6 26 -26 28 -15 2 -34 -4 -44 -14 -17 -17 -17 -14 -11 57 11
121 14 129 44 130 15 0 36 2 47 4 22 3 112 16 120 17 2 0 37 9 77 19 40 11 80
22 88 24 8 2 17 4 20 5 3 1 8 2 13 1 4 0 7 4 7 10 0 5 4 8 8 5 13 -8 137 60
134 73 -1 7 2 10 7 7 14 -9 40 38 37 68 -2 14 0 26 4 26 4 0 17 65 30 145 l24
145 31 0 c17 0 73 -9 125 -20 128 -28 148 -25 165 24 8 22 17 57 20 78 4 21
11 40 16 44 5 3 9 23 9 44 0 21 4 41 8 44 10 6 9 42 -1 52 -3 4 0 19 9 35 13
27 12 33 -8 30 -5 0 -8 3 -8 7 0 8 -30 19 -97 37 -13 4 -23 11 -23 16 0 5 -4
9 -8 9 -5 0 -7 -12 -5 -27 7 -56 -1 -58 -158 -29 -182 33 -264 41 -416 41
-129 0 -159 -9 -133 -40 7 -8 8 -15 3 -15 -9 0 -14 -41 -29 -215 -1 -16 1 -45
6 -63 8 -31 7 -32 -8 -20 -15 11 -16 11 -4 -4 7 -9 29 -24 48 -33 20 -9 34
-18 32 -20 -2 -2 -38 -6 -80 -10 l-78 -7 5 28 c3 16 16 124 30 239 22 185 35
287 40 320 1 6 3 24 3 41 2 23 8 33 22 37 22 6 28 41 9 53 -8 5 -6 10 5 16 23
13 20 31 -10 58 -18 18 -23 31 -19 48 3 13 1 30 -6 38 -13 16 2 39 49 78 19
15 23 26 20 58 -3 36 -2 39 19 33 30 -7 81 19 94 49 12 26 -3 69 -44 119 l-23
29 -84 -10 c-46 -6 -88 -8 -92 -6 -4 2 0 20 8 39 23 55 -3 90 -77 104 l-44 9
34 7 c21 5 36 15 39 27 2 11 15 23 27 28 19 7 24 18 27 62 6 73 -10 98 -62 98
-27 0 -47 -7 -60 -20 -24 -24 -25 -39 -6 -65 15 -21 12 -37 -16 -76 -19 -25
-16 -59 5 -59 13 0 -35 -45 -58 -54 -14 -5 -16 -3 -9 11 15 31 10 113 -6 123
-28 18 -68 11 -88 -15 -24 -30 -32 -31 -32 -5 0 11 -5 20 -10 20 -6 0 -15 11
-20 25 -13 35 -49 32 -102 -8 -24 -19 -59 -37 -77 -40 -18 -4 -45 -16 -61 -27
-25 -17 -29 -18 -34 -4 -9 23 -8 24 18 24 32 0 41 14 55 88 11 55 10 67 -4 88
-21 33 -72 34 -84 1z m-136 -397 c-3 -5 -12 -7 -20 -3 -21 7 -19 13 6 13 11 0
18 -4 14 -10z"/>
<path d="M773 2358 c-24 -31 -22 -47 13 -77 50 -44 108 -40 86 6 -5 10 -15 32
-23 48 -16 33 -58 46 -76 23z"/>
<path d="M2352 2248 c-16 -16 -15 -29 7 -58 16 -20 26 -24 63 -21 49 3 68 15
68 42 0 17 -10 23 -32 21 -3 -1 -12 5 -18 13 -15 18 -71 20 -88 3z"/>
<path d="M238 2054 c-3 -3 -28 -8 -55 -12 -43 -6 -48 -10 -51 -36 -6 -51 50
-90 103 -70 22 9 46 71 39 100 -6 22 -23 31 -36 18z"/>
<path d="M2261 1779 c-15 -17 -26 -20 -48 -14 -55 13 -87 11 -91 -7 -4 -23 46
-88 63 -82 7 3 20 -4 28 -16 13 -18 21 -21 49 -14 18 4 43 8 56 10 41 4 55 24
47 68 -11 72 -63 99 -104 55z"/>
<path d="M392 1662 c-46 -40 -53 -51 -50 -77 3 -30 3 -30 63 -27 103 4 162 45
141 97 -6 18 -65 55 -86 55 -8 0 -39 -22 -68 -48z"/>
<path d="M2484 1621 c-46 -21 -55 -41 -50 -108 4 -52 20 -73 57 -73 20 0 30 6
34 23 4 12 15 31 25 42 28 31 35 81 16 110 -20 30 -28 30 -82 6z"/>
<path d="M2705 823 c-34 -9 -40 -20 -37 -73 3 -39 9 -54 27 -66 23 -15 55 -10
55 9 0 6 6 18 14 26 26 29 29 64 6 89 -21 22 -28 24 -65 15z"/>
<path d="M179 734 c-10 -12 -10 -20 -1 -35 7 -10 12 -25 12 -32 0 -24 48 -67
75 -67 18 0 31 9 45 33 11 17 20 37 20 43 0 16 -92 74 -117 74 -11 0 -26 -7
-34 -16z"/>
</g>
</svg>
